<svg width="25" height="25" viewBox="0 0 25 25" fill="none" xmlns="http://www.w3.org/2000/svg">
<path d="M5.09388 16.6183C7.55969 19.5659 10.528 21.8867 13.9159 23.5288C15.2058 24.1401 16.9308 24.8653 18.8527 24.9896C18.9718 24.9948 19.0858 25 19.2049 25C20.4948 25 21.5309 24.5545 22.3753 23.6376C22.3805 23.6324 22.3908 23.622 22.396 23.6117C22.6964 23.2491 23.0383 22.9227 23.3958 22.5756C23.6393 22.3425 23.8879 22.099 24.1262 21.8504C25.2296 20.7004 25.2296 19.2395 24.1158 18.1258L21.0025 15.0124C20.4741 14.4633 19.8421 14.1732 19.179 14.1732C18.516 14.1732 17.8788 14.4633 17.3349 15.0073L15.4803 16.8618C15.3094 16.7634 15.1332 16.6753 14.9675 16.5924C14.7603 16.4888 14.5686 16.3904 14.3976 16.2816C12.7089 15.2093 11.1755 13.8106 9.7095 12.0131C8.96872 11.0754 8.47142 10.288 8.12434 9.48508C8.61129 9.04476 9.06715 8.58371 9.50747 8.13303C9.66288 7.97244 9.82347 7.81185 9.98406 7.65126C10.5435 7.09179 10.844 6.44426 10.844 5.78637C10.844 5.12847 10.5487 4.48094 9.98406 3.92147L8.44034 2.37775C8.25903 2.19644 8.08808 2.02031 7.91195 1.839C7.57005 1.48674 7.21261 1.12412 6.86035 0.797762C6.32679 0.274554 5.69997 0 5.0369 0C4.379 0 3.74701 0.274555 3.19272 0.802942L1.2553 2.74036C0.55078 3.44488 0.151899 4.29963 0.069015 5.28906C-0.0294102 6.52714 0.198522 7.84293 0.789073 9.43328C1.69562 11.8939 3.06321 14.1784 5.09388 16.6183ZM1.333 5.39784C1.39517 4.70887 1.65936 4.13386 2.15667 3.63655L4.08373 1.70949C4.38418 1.41939 4.71572 1.26917 5.0369 1.26917C5.35289 1.26917 5.67407 1.41939 5.96935 1.71985C6.31642 2.04103 6.64278 2.37775 6.99504 2.73518C7.17117 2.91649 7.35248 3.0978 7.53379 3.28429L9.07751 4.82801C9.39869 5.14919 9.56446 5.47555 9.56446 5.79673C9.56446 6.1179 9.39869 6.44426 9.07751 6.76544C8.91692 6.92603 8.75633 7.09179 8.59575 7.25238C8.11398 7.73933 7.6633 8.20037 7.16599 8.6407C7.15563 8.65106 7.15045 8.65624 7.14009 8.6666C6.71013 9.09656 6.77747 9.5058 6.88107 9.81662C6.88625 9.83216 6.89144 9.84252 6.89662 9.85806C7.2955 10.8164 7.84979 11.7281 8.71489 12.816C10.269 14.7327 11.9059 16.2194 13.7087 17.3643C13.9314 17.5093 14.1697 17.6233 14.3925 17.7373C14.5997 17.8409 14.7914 17.9393 14.9623 18.0481C14.983 18.0584 14.9986 18.0688 15.0193 18.0792C15.1902 18.1672 15.356 18.2087 15.5218 18.2087C15.9362 18.2087 16.2056 17.9445 16.2936 17.8564L18.2311 15.919C18.5315 15.6185 18.8579 15.4579 19.179 15.4579C19.5727 15.4579 19.8939 15.7014 20.096 15.919L23.2197 19.0375C23.8413 19.6591 23.8361 20.3326 23.2041 20.9905C22.9865 21.2236 22.7586 21.4463 22.5151 21.6794C22.1525 22.0317 21.7744 22.3943 21.4325 22.8036C20.8367 23.4459 20.127 23.7464 19.2101 23.7464C19.1221 23.7464 19.0288 23.7412 18.9408 23.736C17.2416 23.6272 15.6616 22.9642 14.4754 22.3995C11.2532 20.8402 8.4248 18.6283 6.07813 15.8206C4.14589 13.4946 2.84564 11.3293 1.98572 9.0085C1.45215 7.58392 1.25012 6.43908 1.333 5.39784Z" fill="white"/>
</svg>
