<svg width="25" height="25" viewBox="0 0 25 25" fill="none" xmlns="http://www.w3.org/2000/svg">
<path d="M24.7633 23.6404L18.3086 17.2888C19.9989 15.4523 21.0374 13.0236 21.0374 10.3511C21.0366 4.63397 16.3276 0 10.5183 0C4.70901 0 0 4.63397 0 10.3511C0 16.0682 4.70901 20.7021 10.5183 20.7021C13.0283 20.7021 15.3305 19.8339 17.1388 18.3906L23.6185 24.7672C23.9342 25.0782 24.4468 25.0782 24.7626 24.7672C25.079 24.4562 25.079 23.9514 24.7633 23.6404ZM10.5183 19.1096C5.603 19.1096 1.61839 15.1883 1.61839 10.3511C1.61839 5.51387 5.603 1.59257 10.5183 1.59257C15.4336 1.59257 19.4182 5.51387 19.4182 10.3511C19.4182 15.1883 15.4336 19.1096 10.5183 19.1096Z" fill="white"/>
</svg>
