<svg width="24" height="93" viewBox="0 0 24 93" fill="none" xmlns="http://www.w3.org/2000/svg">
<g clip-path="url(#clip0_712_5928)">
<path d="M12.053 0C10.7058 0 9.32326 0.109455 7.94069 0.364849C7.65709 0.437819 7.44439 0.547273 7.30259 0.729698C7.16078 0.948607 7.08988 1.16752 7.08988 1.4594V7.80777C7.05443 8.2091 7.26714 8.57395 7.51529 8.86583V20.0667C7.51529 21.2342 6.66448 23.0949 5.38826 24.9557C4.11204 26.8529 2.44586 28.7866 0.815141 30.173C0.354284 30.6108 0.141581 31.0486 0.0706803 31.523C-0.000220699 31.9608 0.0352298 32.3986 0.0352298 32.7634C0.850592 49.7654 2.02046 66.439 1.38235 83.441C1.38235 85.4841 0.425185 87.4908 0.318834 89.1691C0.247933 90.0082 0.425185 90.7744 1.06329 91.3582C1.7014 91.9419 2.76492 92.3433 4.43109 92.5257C4.43109 92.5257 8.0825 93 12.0175 93C15.9525 93 19.6039 92.5257 19.6394 92.5257C21.3055 92.3068 22.3336 91.9055 22.9717 91.3217C23.6098 90.7379 23.7871 89.9718 23.7162 89.1326C23.6098 87.4908 22.6881 85.4841 22.6881 83.441C22.05 66.439 23.2199 49.8019 24.0352 32.7634C24.0352 32.3986 24.0707 31.9608 23.9998 31.523C23.9289 31.0851 23.7162 30.6108 23.2553 30.173C21.6246 28.7501 19.9584 26.8164 18.6822 24.9557C17.406 23.0585 16.5552 21.1977 16.5552 20.0667V8.82935C16.7679 8.53747 16.9806 8.17262 16.9806 7.77128V1.4594C16.9806 1.204 16.9097 0.948607 16.7679 0.729698C16.6261 0.547273 16.4134 0.401334 16.1298 0.364849C14.7472 0.14594 13.4001 0 12.053 0ZM12.053 0.437819C13.3646 0.437819 14.7117 0.583758 15.988 0.802668C16.1652 0.839153 16.2716 0.912122 16.3425 1.02158C16.4134 1.13103 16.4488 1.27697 16.4488 1.4594V3.32013C14.9953 3.1377 13.5064 3.02825 12.053 3.02825C10.564 3.02825 9.03966 3.10122 7.51529 3.32013V1.4594C7.51529 1.27697 7.55074 1.13103 7.62164 1.02158C7.69254 0.912122 7.79889 0.839153 8.0116 0.802668C9.39417 0.547273 10.7058 0.437819 12.053 0.437819ZM10.9185 0.729698C10.7767 1.42291 10.7767 2.07964 10.8831 2.77285C10.9894 2.07964 11.0249 1.42291 10.9185 0.729698ZM11.9466 0.729698C11.8403 1.42291 11.8403 2.07964 11.9821 2.77285C12.0884 2.07964 12.0884 1.42291 11.9466 0.729698ZM13.0101 0.729698C12.9038 1.42291 12.9038 2.07964 13.0456 2.77285C13.1519 2.07964 13.1165 1.42291 13.0101 0.729698ZM10.1386 0.729698C9.99682 1.42291 9.99682 2.07964 10.1386 2.80934C10.2804 2.11612 10.2804 1.4594 10.1386 0.729698ZM13.7546 0.729698C13.6128 1.42291 13.6128 2.07964 13.7546 2.80934C13.8964 2.11612 13.8609 1.4594 13.7546 0.729698ZM9.50052 0.875638C9.35872 1.53237 9.35872 2.15261 9.50052 2.84582C9.60687 2.18909 9.60687 1.56885 9.50052 0.875638ZM14.3927 0.875638C14.2509 1.53237 14.2509 2.15261 14.3927 2.84582C14.5345 2.18909 14.5345 1.56885 14.3927 0.875638ZM8.89786 0.912122C8.75606 1.60534 8.75606 2.26206 8.89786 2.95528C9.03966 2.26206 9.03966 1.64182 8.89786 0.912122ZM14.9953 0.912122C14.8535 1.60534 14.8535 2.26206 14.9953 2.95528C15.1017 2.26206 15.1017 1.64182 14.9953 0.912122ZM8.33065 0.985092C8.2243 1.71479 8.2243 2.37152 8.33065 3.10122C8.47245 2.37152 8.47245 1.71479 8.33065 0.985092ZM15.5626 0.985092C15.4208 1.71479 15.4208 2.37152 15.5626 3.10122C15.6689 2.37152 15.6689 1.71479 15.5626 0.985092ZM7.97614 1.05806C7.83434 1.78776 7.83434 2.44449 7.97614 3.17419C8.0825 2.44449 8.0825 1.78776 7.97614 1.05806ZM15.9525 1.05806C15.8107 1.78776 15.8107 2.44449 15.9525 3.17419C16.0589 2.44449 16.0589 1.78776 15.9525 1.05806ZM12.053 3.35661C13.3292 3.35661 14.5699 3.42958 15.8462 3.57552C15.8107 3.8674 15.8107 4.15928 15.7753 4.41467C15.7398 4.23225 15.7044 4.01334 15.6689 3.83091C15.6335 4.01334 15.6335 4.23225 15.6335 4.41467C15.598 4.19576 15.5271 3.97685 15.4562 3.75794C15.4562 4.26873 15.4562 4.63358 15.4562 5.0714C15.4208 4.5971 15.3144 4.08631 15.2081 3.612C15.2081 5.29031 15.1726 6.23892 15.279 7.88074C14.18 7.80777 13.1165 7.77128 12.0175 7.7348C10.4931 7.7348 9.00421 7.80777 7.55074 7.99019C7.55074 7.95371 7.51529 7.88074 7.51529 7.84425V3.64849C7.72799 3.612 7.90524 3.612 8.11795 3.57552C7.94069 4.99843 7.94069 6.34837 8.1534 7.77128C8.33065 6.34837 8.33065 4.99843 8.1534 3.57552C9.46507 3.42958 10.7767 3.35661 12.053 3.35661ZM15.8816 3.57552C16.0943 3.612 16.2716 3.612 16.4843 3.64849V7.80777C16.4843 7.84425 16.4843 7.88074 16.4843 7.91722C16.307 7.91722 16.1652 7.88074 15.988 7.88074C16.1298 6.42134 16.0943 5.0714 15.8816 3.57552ZM8.5788 3.94037C8.47245 5.03492 8.47245 6.05649 8.5788 7.15104C8.6497 6.05649 8.6497 5.03492 8.5788 3.94037ZM14.9599 4.19576C14.8535 5.25383 14.8535 6.20243 14.9244 7.26049C14.9953 6.20243 15.0308 5.25383 14.9599 4.19576ZM14.5345 4.23225C14.4281 5.25383 14.4281 6.16595 14.5345 7.18752C14.6054 6.20243 14.6054 5.25383 14.5345 4.23225ZM15.4917 6.60377C15.4917 6.85916 15.5271 7.15104 15.5271 7.44292C15.598 7.18752 15.6335 6.93213 15.6689 6.67674C15.7044 6.96862 15.7398 7.26049 15.8107 7.58886C15.8462 7.4794 15.8462 7.33346 15.8462 7.22401C15.8816 7.44292 15.8816 7.66183 15.9171 7.88074C15.7044 7.88074 15.5271 7.84425 15.3144 7.84425C15.3853 7.44292 15.4562 7.0051 15.4917 6.60377ZM12.0175 8.02668C12.8329 8.02668 13.6482 8.06316 14.4636 8.09965C14.2863 8.13613 14.1445 8.17262 13.9673 8.2091C14.2154 8.24559 14.3218 8.24559 14.499 8.28207C14.4636 8.31856 14.4281 8.31856 14.3572 8.35504C14.5699 8.39153 14.7472 8.42801 14.889 8.50098C13.9318 8.42801 12.9392 8.35504 11.9821 8.35504C11.3085 8.35504 10.6704 8.35504 10.0323 8.39153C9.96137 8.35504 9.85502 8.31856 9.78412 8.28207C9.96137 8.24559 10.1386 8.2091 10.3159 8.13613C10.2095 8.09965 10.1032 8.09965 9.99682 8.06316C10.0323 8.06316 10.1032 8.02668 10.1386 8.02668C10.7767 8.06316 11.4148 8.02668 12.0175 8.02668ZM8.33065 8.2091C8.25975 8.24559 8.18885 8.28207 8.11795 8.35504C8.40155 8.28207 8.61425 8.24559 8.79151 8.24559C8.6497 8.28207 8.5079 8.35504 8.3661 8.42801C8.5788 8.42801 8.75606 8.4645 8.93331 8.42801C8.89786 8.42801 8.86241 8.4645 8.82696 8.4645C8.86241 8.4645 8.89786 8.4645 8.93331 8.50098C8.5788 8.53747 8.25975 8.57395 7.90524 8.61044C7.83434 8.50098 7.72799 8.39153 7.69254 8.24559C7.86979 8.24559 8.0825 8.2091 8.33065 8.2091ZM15.8107 8.2091C15.988 8.2091 16.1652 8.24559 16.3425 8.24559C16.307 8.31856 16.2716 8.35504 16.2361 8.39153C16.0943 8.31856 15.9525 8.28207 15.8107 8.2091ZM15.598 8.42801C15.7753 8.42801 15.9525 8.4645 16.2007 8.4645C16.1652 8.50098 16.1652 8.57395 16.1298 8.61044C16.0234 8.61044 15.8816 8.61044 15.7753 8.57395C15.8107 8.57395 15.8107 8.57395 15.8462 8.57395C15.7753 8.53747 15.6689 8.4645 15.598 8.42801ZM12.0175 8.6834C13.3646 8.6834 14.6763 8.75638 16.0589 8.90232V19.8113C14.8181 19.7018 13.5773 19.5924 12.2657 19.5924C10.8831 19.5559 9.46507 19.6289 7.94069 19.8478V8.9388C9.28781 8.79286 10.6349 8.6834 12.0175 8.6834ZM15.6689 9.01177C15.6335 9.6685 15.598 10.2887 15.598 10.909C15.5626 10.3982 15.5626 9.85092 15.5271 9.30365C15.4208 10.8725 15.3853 12.3684 15.3853 13.8643C15.3853 12.4413 15.3144 10.982 15.2435 9.48607C15.0308 12.8427 15.0308 15.9074 15.2435 19.3005C15.3499 17.7681 15.3853 16.2723 15.3853 14.8129C15.3853 16.2723 15.4562 17.6952 15.5271 19.2275C15.5626 18.6803 15.5626 18.133 15.598 17.6222C15.6335 18.2424 15.6335 18.8262 15.6689 19.4464C15.8816 15.8709 15.8816 12.6238 15.6689 9.01177ZM8.5079 9.01177C8.2952 12.5873 8.2952 15.8344 8.54335 19.41C8.72061 15.8709 8.72061 12.5873 8.5079 9.01177ZM14.3572 9.23068C14.2863 12.6238 14.2863 15.6885 14.3927 19.0816C14.4636 15.725 14.4636 12.6238 14.3572 9.23068ZM8.96876 9.34013C8.86241 10.2887 8.86241 11.1644 8.96876 12.113C9.07511 11.1644 9.07511 10.2887 8.96876 9.34013ZM14.889 9.59553C14.6763 13.0251 14.6763 16.1263 14.889 19.5559C15.1017 16.1628 15.1017 13.0251 14.889 9.59553ZM8.93331 13.8278C8.82696 15.6885 8.82696 17.3668 8.89786 19.2275C9.00421 17.4033 9.00421 15.6885 8.93331 13.8278ZM11.2021 20.0667C12.9038 20.0302 14.499 20.1397 16.0589 20.2856C16.1652 21.6355 17.016 23.3868 18.2568 25.2111C19.5685 27.1448 21.2346 29.0785 22.9008 30.5379C23.2908 30.9027 23.4326 31.2676 23.5035 31.6324C23.5744 31.9973 23.5389 32.3986 23.5389 32.7999C22.7236 49.8019 21.5537 66.4755 22.1918 83.5139C22.1918 85.703 23.1135 87.7097 23.2199 89.2421C23.2553 90.0082 23.149 90.592 22.6172 91.0663C22.0854 91.5406 21.1283 91.9419 19.533 92.1609C19.533 92.1609 15.8816 92.6352 11.9821 92.6352C8.0825 92.6352 4.43109 92.1609 4.43109 92.1609C2.80037 91.9784 1.84321 91.6136 1.31145 91.1028C0.779691 90.6285 0.637889 90.0447 0.70879 89.2785C0.815141 87.7827 1.77231 85.703 1.77231 83.5139C2.41041 66.4755 1.24055 49.8019 0.425185 32.7999C0.425185 32.3986 0.389735 32.0337 0.460636 31.6689C0.531537 31.304 0.673339 30.9392 1.06329 30.5743C2.72947 29.1514 4.43109 27.1812 5.70731 25.2475C6.91263 23.4598 7.79889 21.7085 7.86979 20.3586C9.07511 20.1397 10.1386 20.0667 11.2021 20.0667ZM8.5079 20.2491C8.40155 20.7599 8.40155 21.3072 8.40155 21.7815C8.40155 22.2558 8.3661 22.8031 8.11795 23.2409C8.47245 22.876 8.5788 22.2923 8.5788 21.7815C8.61425 21.1977 8.5079 20.8694 8.5079 20.2491ZM15.598 20.3221C15.3499 20.9058 15.4562 21.5261 15.8462 22.0004C15.8462 21.3437 15.7398 20.9423 15.598 20.3221ZM15.2435 20.4315C15.0662 21.0883 15.1371 21.7815 15.279 22.4017C15.4208 23.022 15.6689 23.6422 16.0589 24.153C15.8107 23.5692 15.7044 22.9125 15.5626 22.3288C15.4562 21.7085 15.279 21.0518 15.2435 20.4315ZM14.5699 20.5775C14.3218 21.4896 14.4281 22.4382 14.8535 23.2774C14.6054 22.4382 14.499 21.4896 14.5699 20.5775ZM8.89786 20.614C8.82696 21.2707 8.79151 21.8909 8.72061 22.4747C8.68515 22.8031 8.61425 23.1314 8.5079 23.4233C8.437 23.6422 8.33065 23.8976 8.11795 24.0435C8.33065 23.9341 8.47245 23.6787 8.5788 23.4598C8.72061 23.1679 8.79151 22.8395 8.82696 22.5112C8.93331 21.8909 8.93331 21.2707 8.89786 20.614ZM9.99682 20.6505C9.99682 21.0883 9.96137 21.3437 10.0323 21.7815C10.1386 21.4166 10.1741 21.0153 9.99682 20.6505ZM14.0736 20.6505C13.9318 21.2342 14.0027 21.8545 14.2863 22.4017C14.2154 21.8545 14.1091 21.1977 14.0736 20.6505ZM14.7826 20.6505C14.6408 21.8909 15.0308 23.0949 15.7044 24.153C15.208 23.0585 14.8181 21.8545 14.7826 20.6505ZM13.6837 20.6505C13.5773 20.8694 13.5773 21.0518 13.6128 21.2707C13.79 21.0883 13.7546 20.8694 13.6837 20.6505ZM9.60687 20.7599C9.53597 21.0518 9.53597 21.3437 9.67777 21.5991C9.71322 21.3072 9.67777 21.0518 9.60687 20.7599ZM9.21691 20.7964C9.18146 21.4531 9.00421 22.3652 8.93331 23.0585C9.18146 22.3288 9.32326 21.5626 9.21691 20.7964ZM8.1534 21.3072C7.69254 22.8395 6.62903 24.5908 5.88456 26.0502C6.16817 25.7583 6.41632 25.4665 6.66448 25.1381C6.41632 25.5029 6.13272 25.9408 6.06182 26.0502C7.08988 25.357 7.97614 24.3354 8.0825 23.022C8.0116 23.1314 7.72799 23.5692 7.47984 23.9341C7.86979 23.1314 8.1534 22.2558 8.1534 21.3072ZM15.8462 21.8909C16.0589 22.9855 16.4134 24.08 16.8742 25.1016C16.6615 24.7732 16.4488 24.5178 16.2716 24.3354C16.4488 24.7003 16.5906 25.0651 16.7679 25.43C16.6261 25.1381 16.4488 24.8462 16.307 24.5908C16.4488 25.0651 16.6261 25.5394 16.8033 25.9772C16.697 25.7583 16.5552 25.5394 16.4488 25.3205C16.8033 26.4516 17.406 27.4731 18.115 28.4217C18.1504 28.4582 18.1859 28.4947 18.2213 28.5677C18.3631 28.7501 18.5049 28.896 18.6467 29.0785C18.9658 29.6257 19.533 30.0271 20.1002 30.3189C19.8521 30.0271 19.533 29.6622 19.214 29.3339C19.3203 29.4433 19.4621 29.5163 19.6039 29.6257C19.6039 29.6257 19.6039 29.5893 19.5685 29.5893C19.7103 29.6987 19.8166 29.8082 19.9584 29.9176C19.923 29.8446 19.8521 29.7717 19.7812 29.7352C20.1357 29.9906 20.5256 30.246 20.951 30.3919C20.7383 30.2095 20.2066 29.6622 19.6394 29.0785C20.2775 29.6622 20.9865 30.1365 21.7664 30.5014C20.8092 29.8446 19.9939 29.042 19.214 28.1299C19.6039 28.4582 20.0293 28.7501 20.4902 29.0055C19.2849 27.765 17.9377 26.3056 17.0869 24.8097C17.0869 24.8462 17.1224 24.8827 17.1224 24.9557C16.6615 23.9341 16.2007 22.9125 15.8462 21.8909ZM14.9599 23.8246C14.9244 24.153 14.9953 24.4449 15.1726 24.7003C15.1726 24.3719 15.0662 24.1165 14.9599 23.8246ZM15.3499 24.08C15.3144 24.7732 15.6335 25.43 16.0589 25.9772C15.7753 25.357 15.4562 24.7003 15.3499 24.08ZM8.18885 24.3354C7.72799 25.0286 7.19623 25.8313 6.59358 26.3786C7.33804 25.9043 7.83434 25.1746 8.18885 24.3354ZM8.40155 24.4814C8.18885 24.7732 8.0825 25.0286 7.94069 25.357C8.2243 25.1381 8.3661 24.8097 8.40155 24.4814ZM12.0175 25.5029C11.2021 25.5029 9.57142 25.43 8.437 26.5245C7.62164 27.3272 6.66448 28.3488 6.59358 29.4433C6.55812 29.9906 6.77083 30.4284 7.16078 30.7568C7.51529 31.0851 8.04705 31.2676 8.5788 31.4135C9.71322 31.6689 11.0603 31.6689 12.0175 31.6689C12.9747 31.6689 14.3572 31.6689 15.4562 31.4135C16.0234 31.2676 16.5197 31.0851 16.8742 30.7568C17.2287 30.4284 17.4769 29.9906 17.4414 29.4433C17.3705 28.3488 16.4134 27.2907 15.598 26.5245C14.4636 25.43 12.8329 25.5029 12.0175 25.5029ZM16.1652 25.6854C16.697 27.4366 17.9732 28.7866 19.1431 30.173C18.1504 28.7136 16.8388 27.3272 16.1652 25.6854ZM12.0175 25.8313C12.8683 25.8313 14.3927 25.7583 15.3853 26.7799C16.1652 27.5461 17.0515 28.5677 17.1224 29.5163C17.1578 29.9906 16.9806 30.319 16.697 30.5743C16.3779 30.8297 15.9171 31.0122 15.3853 31.1581C14.3218 31.4135 12.9747 31.4135 12.0175 31.4135C11.0603 31.4135 9.71322 31.4135 8.6497 31.1581C8.11795 31.0486 7.65709 30.8297 7.33804 30.5743C7.01898 30.319 6.87718 29.9906 6.91263 29.5163C6.98353 28.6042 7.86979 27.5826 8.6497 26.7799C9.64232 25.7583 11.1667 25.8313 12.0175 25.8313ZM12.0175 26.0867C11.1667 26.0867 9.74867 26.0502 8.79151 26.9623C8.40155 27.3272 8.0116 27.8015 7.69254 28.2393C7.37349 28.6771 7.16078 29.1149 7.12533 29.5163C7.08988 29.8811 7.23168 30.1365 7.47984 30.3554C7.72799 30.5743 8.1534 30.7568 8.68515 30.8662C9.71322 31.1216 11.0249 31.1216 12.0175 31.1216C12.9747 31.1216 14.3218 31.1216 15.3499 30.8662C15.8462 30.7568 16.2716 30.5743 16.5552 30.3554C16.8033 30.1365 16.9451 29.9176 16.9097 29.5163C16.8742 29.1149 16.6615 28.6771 16.3425 28.2393C16.0234 27.8015 15.6335 27.3637 15.2435 26.9623C14.2863 26.0502 12.8683 26.0867 12.0175 26.0867ZM12.0175 26.3056C12.8683 26.3056 14.2509 26.2691 15.1017 27.1083C15.4917 27.4731 15.8816 27.9109 16.1652 28.3488C16.4488 28.7866 16.6615 29.1879 16.697 29.5163C16.7324 29.8446 16.6615 29.9906 16.4134 30.173C16.2007 30.3554 15.8107 30.5379 15.3144 30.6473C14.3218 30.8662 13.0101 30.9027 12.0175 30.9027C11.0603 30.9027 9.71322 30.9027 8.72061 30.6473C8.2243 30.5379 7.83434 30.3554 7.62164 30.173C7.40894 29.9906 7.33804 29.8446 7.33804 29.5163C7.37349 29.1879 7.55074 28.7501 7.86979 28.3488C8.1534 27.9109 8.54335 27.4731 8.93331 27.1083C9.78412 26.2691 11.1312 26.3056 12.0175 26.3056ZM5.1401 26.9623C4.39564 27.9839 3.50938 28.969 2.94217 30.1365C2.97762 30.0636 2.97762 29.9541 3.01307 29.8811C2.72947 30.2825 2.51677 30.7203 2.41041 31.1946C2.48132 30.7933 2.55222 30.3919 2.58767 30.173C1.98501 30.7568 1.94956 31.6324 2.23316 32.3621C2.26861 32.1797 2.30406 31.8148 2.37496 31.4865C2.37496 31.5594 2.37496 31.5959 2.33951 31.6689C2.23316 32.1797 2.26861 32.727 2.41041 33.2377C2.41041 33.0188 2.41041 32.7999 2.44586 32.581C2.48132 32.654 2.48132 32.727 2.51677 32.7999C2.51677 32.6905 2.51677 32.581 2.55222 32.4716C2.62312 32.1797 2.72947 31.8878 2.87127 31.5594C2.80037 31.7419 2.76492 31.9243 2.72947 32.1432C2.80037 31.9608 2.83582 31.7783 2.94217 31.5959C3.04852 31.6324 3.15488 31.6324 3.29668 31.6689C3.22578 31.9608 3.22578 32.2162 3.22578 32.508C3.29668 32.2526 3.33213 31.9608 3.40303 31.6689C3.50938 31.6689 3.61573 31.7054 3.75753 31.7054C3.72208 31.8513 3.72208 31.9973 3.75753 32.1797C3.82844 31.9973 3.86389 31.8513 3.86389 31.7054C4.43109 31.7054 4.96285 31.6324 5.53006 31.523C4.96285 31.377 4.46654 31.377 3.93479 31.377C3.93479 31.304 3.97024 31.2311 3.97024 31.1216C3.89934 31.1946 3.86389 31.2676 3.82844 31.377C3.72208 31.377 3.58028 31.377 3.47393 31.377C3.58028 31.0851 3.68663 30.8297 3.82844 30.6108C3.58028 30.8297 3.40303 31.0851 3.33213 31.4135C3.26123 31.4135 3.19033 31.4135 3.11942 31.4135C3.68663 30.4649 4.502 29.6622 5.35281 28.9325C4.39564 29.5528 3.54483 30.3554 3.08397 31.4135C3.04852 31.4135 3.04852 31.4135 3.01307 31.4135C3.58028 30.2095 4.5729 29.1879 5.53006 28.2028C5.03375 28.6406 4.53745 29.1149 4.07659 29.6257C4.5729 29.042 4.9983 28.3853 5.38826 27.692C4.82105 28.1663 4.36019 28.7136 3.97024 29.2974C4.07659 29.1149 4.14749 28.9325 4.28929 28.7136C4.25384 28.7136 4.25384 28.7501 4.25384 28.7501C4.6438 28.1663 4.9274 27.5826 5.1401 26.9623ZM2.19771 30.1C1.3469 30.2095 0.815141 31.2311 1.1342 32.0337C1.2051 31.8513 1.31145 31.5959 1.4178 31.3405C1.38235 31.5594 1.4178 31.8148 1.4887 32.0337C1.5596 31.7419 1.94956 30.6473 2.09136 30.3919C2.02046 30.4284 1.94956 30.4649 1.87866 30.5379C1.98501 30.3554 2.09136 30.2095 2.19771 30.1ZM3.61573 30.1C3.50938 30.246 3.36758 30.4284 3.29668 30.6108C3.36758 30.4649 3.43848 30.3554 3.50938 30.246C3.54483 30.2095 3.58028 30.1365 3.61573 30.1ZM22.0145 30.4284C22.3336 30.9027 22.5818 31.9973 22.7236 32.6175C23.0781 31.8513 22.9008 30.7568 22.0145 30.4284ZM20.3484 30.5014C20.8092 31.4135 21.0928 32.727 21.341 33.7485C21.341 33.5661 21.3764 33.3472 21.3764 33.1648C21.3764 33.3107 21.3764 33.4931 21.3764 33.6391C21.8727 32.727 21.5537 31.6324 20.9156 30.9027C20.9865 31.1581 21.0928 31.45 21.1637 31.7419C20.9865 31.2676 20.7383 30.8297 20.3484 30.5014ZM21.0574 30.5743C21.2346 30.8297 21.4119 31.1216 21.5537 31.45C21.4828 31.377 21.4119 31.304 21.341 31.2676C21.4119 31.45 21.8373 32.9459 21.9082 33.1648C21.9436 33.0918 21.9436 33.0188 21.9436 32.9459C21.9791 33.2377 21.9791 33.5296 21.9436 33.785C22.4754 32.6905 22.05 31.2676 21.0574 30.5743ZM18.9658 30.6838C19.1431 31.1216 19.2494 31.6324 19.2494 32.1432C18.3631 32.1797 17.6187 32.2527 16.6261 32.3986C17.5123 32.6175 18.3986 32.581 19.2494 32.3621C19.2494 32.7634 19.2494 33.1648 19.214 33.5661C19.3203 33.1648 19.3912 32.7634 19.3558 32.3256C19.4267 32.3256 19.4621 32.2891 19.533 32.2891C19.5685 32.3986 19.6039 32.4716 19.7103 32.581C19.7812 32.4716 19.8166 32.3256 19.7812 32.2162C19.8166 32.2162 19.8166 32.2162 19.8521 32.1797C19.8166 32.1797 19.8166 32.1797 19.7812 32.1797C19.7812 31.9973 19.7103 31.8513 19.4976 31.7054C19.4621 31.8878 19.4267 32.0337 19.4621 32.1797C19.4267 32.1797 19.3558 32.1797 19.3203 32.1797C19.3912 31.6324 19.2494 31.1216 18.9658 30.6838ZM3.15488 30.9392C3.15488 30.9757 3.11942 31.0486 3.11942 31.0851C3.08397 31.1946 3.01307 31.304 2.97762 31.4135C3.01307 31.2311 3.08397 31.0851 3.15488 30.9392ZM20.1002 31.304C20.2066 32.2891 20.0648 32.1797 20.242 33.1648C20.5256 32.581 20.5256 31.8513 20.1002 31.304ZM20.4193 31.45C20.4193 31.377 20.6674 33.5296 20.6674 33.4931C20.951 32.8364 20.951 31.9973 20.4193 31.45ZM17.8668 31.7419C14.0736 32.2891 10.1741 32.2527 6.30997 32.0702C10.1741 32.4351 14.0736 32.508 17.8668 31.7419ZM17.3705 32.0702C16.1298 32.2162 15.2081 32.3621 13.9673 32.5445C15.1017 32.5445 16.2361 32.3621 17.3705 32.0702ZM6.66448 32.3986C5.88456 32.3986 5.10465 32.3986 4.28929 32.4716C5.95547 32.508 7.33804 32.581 9.00421 32.508C8.2243 32.4716 7.44439 32.4351 6.66448 32.3986ZM0.992394 32.4351C1.1342 37.9808 1.45325 43.0157 2.02046 48.5614C1.94956 46.1899 1.84321 43.8913 1.7014 41.6293C1.80776 43.1981 1.94956 44.7305 2.16226 46.3723C2.16226 42.9792 1.94956 39.878 1.52415 36.4849C1.52415 37.9443 1.5596 39.3307 1.6305 40.7171C1.4887 37.9808 1.276 35.2809 0.992394 32.4351ZM1.3469 32.654C1.3469 33.7485 1.4178 34.7701 1.5596 35.8647C1.5596 34.7701 1.4887 33.7485 1.3469 32.654ZM2.90672 33.0553C2.90672 34.8431 2.97762 36.4484 3.15488 38.2362C3.15488 36.4484 3.08397 34.8431 2.90672 33.0553ZM3.68663 33.0918C3.61573 33.6391 3.65118 34.1499 3.75753 34.6971C3.82844 34.1499 3.79298 33.6391 3.68663 33.0918ZM22.1209 33.4931C21.9436 35.4998 21.8018 37.47 21.6955 39.4037C21.7664 37.6159 21.8018 35.7917 21.8018 33.8945C21.3764 38.7834 21.1637 43.2346 21.1637 48.1601C21.3055 46.2993 21.4473 44.5116 21.5182 42.6873C21.4473 44.3292 21.4119 45.971 21.4119 47.6493C21.5182 46.6277 21.5891 45.6061 21.66 44.5845C21.6246 45.7885 21.6246 46.9561 21.6246 48.1966C22.0145 43.9643 22.1918 40.0969 22.2273 35.7917C22.1564 36.7038 22.05 37.543 22.0145 38.4186C22.05 36.8497 22.0855 35.2079 22.1209 33.4931ZM22.6881 33.858C22.3691 38.6375 22.1918 43.0157 22.05 47.8317C22.3336 43.0887 22.5463 38.674 22.6881 33.858ZM2.19771 33.8945C2.33951 38.6375 2.55222 42.9427 2.90672 47.6858C2.72947 42.9792 2.51677 38.6375 2.19771 33.8945ZM19.1431 33.931C19.0013 35.0255 18.9304 36.0106 18.9658 37.1051C19.1076 36.0106 19.1431 35.0255 19.1431 33.931ZM2.48132 33.9674C2.55222 39.0024 2.83582 43.563 3.33213 48.5614C3.26123 43.5995 2.97762 39.0024 2.48132 33.9674ZM21.4473 34.1863C21.0219 39.1118 20.8447 43.5995 20.8447 48.5249C21.2346 43.6359 21.4473 39.1483 21.4473 34.1863ZM19.8166 34.2228C19.6039 38.8929 19.4976 43.1616 19.4621 47.8317C19.6394 43.2346 19.7457 38.9294 19.8166 34.2228ZM20.2775 35.2444C19.9584 39.5861 19.8521 43.49 19.9584 47.8317C20.242 43.563 20.3484 39.5861 20.2775 35.2444ZM3.89934 35.3539C3.97024 39.5496 4.07659 43.3441 4.32474 47.5398C4.25384 43.3805 4.11204 39.5496 3.89934 35.3539ZM22.6881 37.8713C22.5109 40.0604 22.4045 42.0671 22.3691 44.2927C22.5818 42.1036 22.6527 40.0969 22.6881 37.8713ZM20.7383 38.3091C20.3838 41.6658 20.2775 44.7305 20.3838 48.1236C20.7029 44.8035 20.8092 41.7022 20.7383 38.3091ZM19.0722 38.8199C18.9304 41.1914 18.8595 43.3805 18.8949 45.7521C19.0367 43.3805 19.1076 41.1914 19.0722 38.8199ZM3.33213 40.3888C3.36758 43.1981 3.47393 45.7521 3.68663 48.5614C3.65118 45.7885 3.50938 43.2346 3.33213 40.3888ZM11.9821 45.898C11.8757 45.898 11.7694 46.0075 11.7694 46.1169C11.7694 46.2264 11.8757 46.3358 11.9821 46.3358C12.0884 46.3358 12.1948 46.2264 12.1948 46.1169C12.1948 46.0075 12.0884 45.898 11.9821 45.898ZM10.9185 46.0439C10.8122 46.0439 10.7058 46.1534 10.7058 46.2629C10.7058 46.3723 10.8122 46.4818 10.9185 46.4818C11.0249 46.4818 11.1312 46.3723 11.1312 46.2629C11.1312 46.1534 11.0603 46.0439 10.9185 46.0439ZM13.081 46.0804C12.9747 46.0804 12.8683 46.1899 12.8683 46.2993C12.8683 46.4088 12.9747 46.5182 13.081 46.5182C13.1874 46.5182 13.2937 46.4088 13.2937 46.2993C13.2937 46.1899 13.1874 46.0804 13.081 46.0804ZM9.96137 46.3723C9.85502 46.3723 9.74867 46.4818 9.74867 46.5912C9.74867 46.7007 9.85502 46.8101 9.96137 46.8101C10.0677 46.8101 10.1741 46.7007 10.1741 46.5912C10.2095 46.4818 10.1032 46.3723 9.96137 46.3723ZM14.0382 46.3723C13.9318 46.3723 13.8255 46.4818 13.8255 46.5912C13.8255 46.7007 13.9318 46.8101 14.0382 46.8101C14.1445 46.8101 14.2509 46.7007 14.2509 46.5912C14.2509 46.4818 14.1445 46.3723 14.0382 46.3723ZM19.4621 49.8749H19.7812C19.7457 50.9329 19.7103 51.9545 19.6394 53.0126H19.3912C19.4267 51.9545 19.4267 50.9329 19.4621 49.8749ZM19.7812 49.8749L20.1002 49.9113C20.0648 50.9694 19.9939 51.991 19.9584 53.0126H19.7103C19.7457 51.9545 19.7457 50.9329 19.7812 49.8749ZM20.1002 49.9113L20.9156 49.9478C20.9156 49.9478 20.951 49.9843 20.951 50.0938L20.5611 71.0726C20.5611 71.255 20.4902 71.328 20.5256 71.2915C20.5256 71.2915 20.4547 71.328 20.3838 71.328C19.9584 71.4009 19.5685 71.4374 19.1431 71.4739C19.2494 68.847 19.3558 66.2931 19.4267 63.7391H19.6039C19.5685 65.4904 19.533 67.2417 19.533 69.0294C19.6039 67.2417 19.6748 65.4904 19.7457 63.7391H20.2066V63.5202H19.7812C19.7812 63.1918 19.8166 62.8635 19.8166 62.5351H19.9939V62.0973H19.8166C19.923 59.1785 19.9939 56.2232 20.0293 53.2315H20.2066V53.0126H20.0293C20.0648 51.991 20.1002 50.9329 20.1002 49.9113ZM20.2066 53.195C20.0648 55.4206 19.9939 57.5367 20.0648 59.8352C20.242 57.2083 20.3129 54.7638 20.2775 52.1004C20.242 52.5018 20.242 52.8666 20.2066 53.195ZM3.50938 50.6775C3.43848 56.4421 3.47393 61.696 3.65118 67.4971C3.72208 61.7324 3.65118 56.4786 3.50938 50.6775ZM19.1076 53.195H19.2849C19.214 54.5814 19.1785 55.9678 19.1076 57.3543L19.0367 56.734C19.0722 55.5665 19.0722 54.399 19.1076 53.195ZM19.3912 53.195H19.6394C19.5685 55.3111 19.4976 57.3907 19.4267 59.4339L19.2849 58.2664C19.2849 56.6246 19.3558 54.9098 19.3912 53.195ZM18.4695 55.7124L18.824 58.3758C18.824 58.6677 18.824 58.9596 18.7886 59.288H17.9377L18.4695 55.7124ZM18.9304 59.7258H19.0013L19.0367 59.9082C19.0013 61.1122 18.9658 62.3162 18.9304 63.5202H18.7886C18.8595 62.2432 18.8949 60.9663 18.9304 59.7258ZM19.1785 60.9298L19.3203 62.0608H19.1076C19.1431 61.696 19.1431 61.3311 19.1785 60.9298ZM19.1076 62.5351H19.3203C19.3203 62.8635 19.3203 63.1918 19.2849 63.5202H19.0722C19.0722 63.1918 19.1076 62.8635 19.1076 62.5351ZM19.4976 62.5351H19.6748C19.6748 62.8635 19.6748 63.1918 19.6394 63.5202H19.4621C19.4621 63.1918 19.4621 62.8635 19.4976 62.5351ZM21.5182 66.439C21.4119 69.9051 21.4119 73.0792 21.4828 76.5453C21.5537 73.0792 21.5891 69.9051 21.5182 66.439ZM21.1283 72.0577C21.0574 73.9184 21.0219 75.7062 21.0219 77.4939C21.0219 77.421 21.0219 77.3845 20.9865 77.3115C20.9865 77.3845 20.951 77.4939 20.951 77.5669C20.9156 76.1805 20.8801 74.7576 20.8092 73.2982C20.7029 75.1954 20.6674 77.0196 20.6674 78.8074C20.632 77.6763 20.5965 76.5088 20.5256 75.3413C20.4193 76.6548 20.3838 77.8953 20.3838 79.1357C20.3484 76.9831 20.3129 74.8305 20.2066 72.6049C20.1357 74.4292 20.1002 76.144 20.1002 77.8953C20.0648 76.5453 20.0293 75.2319 19.9584 73.8089C19.7457 77.421 19.7457 80.7411 19.9939 84.3531C20.0648 83.1491 20.1002 81.9816 20.1002 80.814C20.1357 82.8207 20.1711 84.8639 20.2775 86.98C20.0293 87.0165 19.8166 87.053 19.6039 87.053C19.7812 82.3829 19.7457 78.0777 19.533 73.3711C19.4621 74.9035 19.4267 76.3994 19.4267 77.8953C19.4267 76.8007 19.3912 75.6697 19.3203 74.5386C19.1076 77.7493 19.0722 80.6681 19.2849 83.9153C19.3558 82.7842 19.3912 81.6897 19.4267 80.5951C19.4621 82.7113 19.4976 84.8639 19.6394 87.0894C19.6039 87.0894 19.533 87.0894 19.4976 87.0894C19.7812 87.1624 20.0648 87.2354 20.3129 87.2354C20.3129 87.3084 20.3129 87.3813 20.3129 87.4908C20.3129 87.4178 20.3129 87.3448 20.3129 87.2354C20.3484 87.2354 20.3838 87.2354 20.4193 87.2354C20.4547 87.7097 20.5256 88.2205 20.6674 88.7313C20.6674 88.2205 20.7029 87.7462 20.6674 87.2354C20.8801 87.2354 21.0928 87.1624 21.341 87.1259C21.8018 87.2719 22.3336 87.6732 22.8299 87.8556C22.7236 87.7462 22.6172 87.6002 22.5109 87.4908C22.44 87.1989 22.3691 86.98 22.3336 86.7246C22.4045 86.6881 22.5109 86.6152 22.5818 86.5787C22.5109 86.6152 22.3691 86.6151 22.2982 86.6516C22.2627 86.5057 22.1918 86.3597 22.1209 86.1773C22.1564 85.9949 22.1564 85.8125 22.0854 85.6665C22.0145 85.9949 21.8018 86.2503 21.6246 86.4327C21.5182 86.5422 21.3764 86.6881 21.2346 86.8705C21.0574 86.907 20.8801 86.9435 20.6674 86.98C20.632 86.3597 20.5256 85.7395 20.3129 85.1193C20.3484 83.4774 20.3838 81.8356 20.3484 80.2303C20.3838 81.3613 20.4193 82.4924 20.5256 83.6599C20.5965 82.4194 20.632 81.2154 20.632 80.0114C20.632 81.6167 20.7029 83.2221 20.8092 84.9368C20.8801 83.4774 20.9156 82.0545 20.9156 80.6681C20.951 80.8505 20.951 81.033 20.9865 81.1789C20.9865 81.1789 20.9865 81.1789 20.9865 81.1424C21.0219 82.6018 21.0574 84.0977 21.1637 85.6301C21.3764 80.9235 21.341 76.6913 21.1283 72.0577ZM3.33213 72.6414C3.22578 73.4806 3.22578 74.2468 3.29668 75.1224C3.40303 74.2832 3.40303 73.4806 3.33213 72.6414ZM3.54483 72.7144C3.43848 73.4076 3.43848 74.0279 3.50938 74.6846C3.58028 74.0279 3.61573 73.4076 3.54483 72.7144ZM3.82844 72.7874C3.72208 73.1887 3.72208 73.59 3.82844 73.9914C3.89934 73.59 3.89934 73.2252 3.82844 72.7874ZM4.25384 72.8603C4.14749 73.1522 4.14749 73.4076 4.25384 73.6995C4.32474 73.4076 4.32474 73.1522 4.25384 72.8603ZM2.76492 72.8968C2.44586 77.4574 2.33951 81.6532 2.44586 86.2138C2.76492 81.6897 2.83582 77.4939 2.76492 72.8968ZM18.2213 73.0792C18.115 73.736 18.0795 74.3562 18.1504 75.0129C18.2568 74.3562 18.2568 73.7725 18.2213 73.0792ZM4.7147 73.1522C4.46654 77.6763 4.28929 81.7991 4.21839 86.3233C4.46654 81.8356 4.60835 77.7128 4.7147 73.1522ZM17.8314 73.1522C17.725 74.7576 17.725 76.1805 17.7959 77.7858C17.8668 76.2169 17.9023 74.7576 17.8314 73.1522ZM5.45916 73.3346C5.24646 74.3562 5.28191 75.3413 5.38826 76.3629C5.45916 75.2319 5.42371 74.4657 5.45916 73.3346ZM18.6467 74.2833C18.434 78.625 18.434 82.5653 18.6822 86.907C18.8595 82.6018 18.8595 78.625 18.6467 74.2833ZM3.93479 74.6481C3.58028 78.5155 3.47393 82.0545 3.54483 85.9584C3.86389 82.1275 4.00569 78.5885 3.93479 74.6481ZM3.08397 75.3778C2.80037 78.3696 2.76492 81.1059 2.94217 84.0977C3.15488 81.1424 3.22578 78.406 3.08397 75.3778ZM3.58028 76.4359C3.40303 79.3182 3.29668 81.9451 3.29668 84.8274C3.47393 81.9816 3.58028 79.3547 3.58028 76.4359ZM5.24646 77.3115C5.0692 79.9749 4.96285 82.4194 4.96285 85.0828C5.17555 82.4194 5.24646 79.9749 5.24646 77.3115ZM18.0441 78.2601C17.9377 79.6465 17.9377 80.9235 18.0441 82.3099C18.115 80.96 18.115 79.683 18.0441 78.2601ZM18.0086 83.3315C17.9377 84.4625 17.9732 85.4476 18.0795 86.5787C18.1504 85.4841 18.115 84.4625 18.0086 83.3315ZM20.3484 85.0098C20.3484 85.6301 20.3484 86.2503 20.3838 86.8341C20.3484 86.8341 20.3129 86.8341 20.3129 86.8341C20.3129 86.2503 20.3129 85.6301 20.3484 85.0098ZM2.05591 85.7395C2.02046 85.8854 1.52415 87.3813 1.4887 87.5273C1.7014 87.3813 1.84321 87.1989 1.98501 86.9435C1.98501 86.9435 1.98501 86.9435 2.02046 86.9435C1.98501 87.0165 1.98501 87.0895 1.94956 87.2354C2.09136 87.1989 2.19771 87.1259 2.30406 87.0165C2.58767 87.0894 2.83582 87.1259 3.11942 87.1624C2.72947 87.1624 2.33951 87.3813 2.19771 87.8191C2.26861 87.7827 2.33951 87.7462 2.41041 87.7097C2.33951 87.8191 2.30406 87.9286 2.30406 88.0745C2.23316 88.184 2.16226 88.257 2.09136 88.4029C1.98501 88.4759 1.87866 88.5853 1.80776 88.7313C1.84321 88.5853 1.87866 88.4759 1.94956 88.3664C1.66595 88.6218 1.52415 88.9502 1.4887 89.315C1.45325 88.7678 1.59505 88.1475 2.02046 87.7462C1.3469 88.0381 1.06329 88.8772 1.16965 89.6069C1.276 90.3001 1.7014 91.0298 2.37496 91.2487C2.26861 91.1758 2.16226 91.0663 2.05591 90.9568C2.09136 90.9933 2.16226 91.0298 2.19771 91.0663C2.41041 91.3582 2.76492 91.5771 3.08397 91.6865C3.65118 91.9055 4.21839 91.9055 4.82105 91.9419C4.75015 91.9055 4.7147 91.9055 4.6438 91.869C5.70731 92.0879 6.80628 92.1609 7.90524 92.1609C7.08988 91.9784 6.16817 91.8325 5.21101 91.6501C5.31736 91.6501 5.45916 91.6865 5.56551 91.6865C4.75015 91.1028 3.86389 91.2122 3.08397 90.7379C3.29668 91.0663 3.58028 91.2487 3.89934 91.3582C3.82843 91.3582 3.72208 91.3217 3.65118 91.3217C3.36758 91.1758 3.11942 90.9568 2.90672 90.7379C2.44586 90.0812 2.19771 89.1326 2.41041 88.4029C2.30406 88.5124 2.23316 88.6583 2.16226 88.8042C2.19771 88.5488 2.23316 88.2934 2.26861 88.0745C2.48132 87.8556 3.08397 87.5273 3.36758 87.4543C3.33213 87.4543 3.33213 87.4543 3.29668 87.4178C3.47393 87.4178 3.61573 87.3813 3.75753 87.4178C3.61573 87.2719 3.43848 87.1989 3.26123 87.1624C3.43848 87.1624 3.79298 87.1989 3.79298 87.1259C3.79298 87.0894 3.19033 86.98 3.19033 86.98C2.90672 86.907 2.58767 86.8341 2.33951 86.7246C2.37496 86.6151 2.33951 86.4692 2.23316 86.3233C2.16226 86.4692 2.12681 86.5422 2.09136 86.6151C2.09136 86.6151 2.05591 86.6152 2.05591 86.5787C2.16226 86.3597 2.16226 86.0314 2.05591 85.7395ZM22.0145 86.2868C22.0145 86.3597 22.0145 86.4692 22.0145 86.5422C22.0145 86.5057 21.9791 86.4327 21.9436 86.3962C21.9791 86.3233 21.9791 86.3233 22.0145 86.2868ZM18.9304 87.1989C14.2863 87.4543 9.42962 87.4178 4.67925 87.3084C9.46507 87.5638 14.1445 87.6367 18.9304 87.1989ZM3.68663 87.7097C3.26123 87.8556 2.94217 88.184 2.76492 88.6583C3.01307 88.3664 3.40303 87.9651 3.68663 87.7097ZM21.9082 87.8921C22.2627 88.2934 22.4045 88.8407 22.4754 89.315C22.5463 89.8258 22.4754 90.3731 22.1564 90.665C22.1209 90.7015 22.0854 90.7015 22.0854 90.7379C22.5463 90.1542 22.4754 89.315 22.1564 88.6948C22.2982 89.3515 22.2627 90.0082 21.9436 90.4461C21.9082 90.4461 21.9082 90.4825 21.8727 90.4825C22.2982 89.8623 22.2627 88.9502 21.7309 88.3664C21.8727 88.8407 21.9082 89.4245 21.8018 89.9718C21.4119 90.5555 20.7738 90.9204 20.1711 91.2122C19.4267 91.5406 18.6467 91.796 17.8314 91.9419C17.5123 92.0149 17.0515 91.9419 16.6615 92.0879C17.016 92.0514 17.4769 92.1609 17.8314 92.1609C18.3986 92.1244 18.9304 92.0149 19.4267 91.8325C19.5685 91.8325 19.6748 91.796 19.8166 91.7595C20.5256 91.6501 21.1992 91.4676 21.8373 91.0663C21.9791 91.0298 22.1564 90.9933 22.2982 90.8839C22.759 90.4825 22.8654 89.8258 22.7236 89.2785C22.6527 88.7313 22.3691 88.184 21.9082 87.8921ZM20.2066 87.9651C20.3129 88.9502 19.8166 89.9718 19.1076 90.3001C18.7177 90.4825 18.1504 90.6285 17.7605 90.8839C18.2922 90.7015 18.6822 90.7744 19.214 90.5555C20.1711 90.1542 20.5965 88.9137 20.2066 87.9651ZM4.11204 88.0016C3.86389 88.0381 3.61573 88.184 3.50938 88.4394C3.79298 88.257 3.89934 88.2205 4.11204 88.0016ZM12.6556 88.6218C10.7413 88.5853 8.79151 88.9502 6.98353 89.6434C6.34542 89.8988 5.67186 90.1907 4.96285 90.1542C5.67186 90.2271 6.38087 89.9718 7.05443 89.7893C7.65709 89.6069 8.25975 89.461 8.86241 89.315C8.5788 89.388 8.33065 89.4975 8.0825 89.6069C8.89786 89.388 9.71322 89.2421 10.564 89.1326C12.6556 89.0231 14.9599 89.6069 17.0869 89.8623C16.5197 89.6799 15.988 89.5339 15.4208 89.388C15.6335 89.4245 15.8816 89.461 16.0943 89.5339C15.8462 89.4245 15.598 89.315 15.3499 89.2056C15.4917 89.2421 15.6335 89.2785 15.7753 89.2785C16.2361 89.388 16.697 89.4975 17.1933 89.6069C18.0086 89.7893 18.8949 90.0082 19.7103 89.7528C18.8949 89.9353 18.0441 89.6434 17.2287 89.4245C16.3779 89.1691 15.5271 88.8772 14.6408 88.7678C13.8964 88.6583 13.2937 88.6218 12.6556 88.6218ZM21.3764 88.6948C21.341 89.2785 21.1283 90.1542 20.8801 90.665C21.5537 90.3001 21.7664 89.388 21.3764 88.6948ZM20.8801 88.8042C20.632 89.461 20.3838 90.3731 19.9939 90.8474C20.8092 90.592 20.9865 89.6069 20.8801 88.8042ZM2.87127 88.9867C2.41041 89.5704 2.83582 90.4461 3.50938 90.6285C3.15488 90.1907 2.83582 89.5339 2.87127 88.9867ZM3.36758 89.4245C3.19033 90.0812 3.79298 90.7379 4.43109 90.665C4.04114 90.4096 3.54483 89.8623 3.36758 89.4245ZM19.9939 90.0812C19.4976 90.6285 19.6039 90.4825 19.214 91.1028C19.7103 91.0298 20.0648 90.592 19.9939 90.0812ZM21.7309 90.2271C21.6955 90.3731 21.6246 90.519 21.5537 90.665C21.4119 90.7379 21.3055 90.8109 21.1637 90.8839C21.4119 90.665 21.5891 90.4825 21.7309 90.2271ZM2.26861 90.3731C2.33951 90.4461 2.37496 90.4825 2.44586 90.5555C2.48132 90.592 2.48132 90.6285 2.51677 90.665C2.55222 90.7015 2.55222 90.7379 2.55222 90.7744C2.44586 90.665 2.37496 90.5555 2.30406 90.4461C2.30406 90.4096 2.30406 90.4096 2.26861 90.3731ZM1.98501 90.4825C2.02046 90.519 2.05591 90.592 2.09136 90.6285C2.16226 90.7015 2.23316 90.7744 2.30406 90.8474C2.26861 90.8109 2.19771 90.7744 2.16226 90.7379C2.05591 90.665 2.02046 90.5555 1.98501 90.4825ZM18.824 91.0298C18.5404 91.1028 18.3986 91.0663 18.2922 91.4312C18.5404 91.5041 18.8595 91.3947 18.824 91.0298ZM12.0884 91.5406C11.1312 91.5406 10.1741 91.6136 9.14601 91.723C11.1667 91.9419 12.9747 91.9419 14.9953 91.6865C14.0027 91.5771 13.0456 91.5406 12.0884 91.5406ZM12.372 91.869C11.0249 91.869 9.64232 91.9419 8.2243 92.0514C11.0958 92.2703 13.6837 92.2338 16.5197 91.9784C15.0662 91.869 13.7191 91.8325 12.372 91.869Z" fill="#1C2224" stroke="black" stroke-width="0.2"/>
</g>
<defs>
<clipPath id="clip0_712_5928">
<rect width="24" height="93" fill="white"/>
</clipPath>
</defs>
</svg>
